<svg width="32" height="32" viewBox="0 0 32 32" fill="none" xmlns="http://www.w3.org/2000/svg">
<path d="M8.44067 23.1782C8.44067 23.9094 9.03755 24.5063 9.77192 24.5063H11.2938V28.2688C11.2938 29.2219 12.0594 30 13 30C13.9438 30 14.7063 29.225 14.7063 28.2688V24.5032H17.3625V28.2657C17.3625 29.2188 18.1282 29.9969 19.0688 29.9969C20.0125 29.9969 20.775 29.2219 20.775 28.2657V24.5032H22.2969C23.0313 24.5032 23.6282 23.9063 23.6282 23.175V10.825H8.44067V23.1782ZM19.6 4.42503L21.0032 2.39378C21.0844 2.27503 21.0657 2.11565 20.9563 2.03753C20.8469 1.96253 20.6907 2.00003 20.6094 2.11878L19.1532 4.23128C18.1938 3.85315 17.125 3.64378 16.0032 3.64378C14.8813 3.64378 13.8125 3.85315 12.8532 4.23128L11.3969 2.1219C11.3157 2.00315 11.1594 1.96253 11.05 2.04065C10.9407 2.11565 10.9219 2.2719 11.0032 2.3969L12.4063 4.42815C10.175 5.46565 8.61255 7.43128 8.41255 9.72815H23.6C23.3938 7.42815 21.8282 5.46253 19.6 4.42503ZM12.7969 7.62815C12.6307 7.62815 12.4681 7.57885 12.3299 7.48648C12.1917 7.39411 12.0839 7.26282 12.0203 7.10922C11.9567 6.95562 11.94 6.78659 11.9725 6.62353C12.0049 6.46046 12.0849 6.31068 12.2025 6.19311C12.3201 6.07555 12.4699 5.99549 12.6329 5.96305C12.796 5.93062 12.965 5.94726 13.1186 6.01089C13.2722 6.07451 13.4035 6.18226 13.4959 6.3205C13.5882 6.45874 13.6375 6.62127 13.6375 6.78753C13.637 7.0103 13.5482 7.22378 13.3907 7.3813C13.2332 7.53882 13.0197 7.62757 12.7969 7.62815ZM19.3094 7.62815C19.1432 7.62815 18.9806 7.57885 18.8424 7.48648C18.7042 7.39411 18.5964 7.26282 18.5328 7.10922C18.4692 6.95562 18.4525 6.78659 18.4849 6.62353C18.5174 6.46046 18.5974 6.31068 18.715 6.19311C18.8326 6.07555 18.9824 5.99549 19.1454 5.96305C19.3085 5.93062 19.4775 5.94726 19.6311 6.01089C19.7847 6.07451 19.916 6.18226 20.0084 6.3205C20.1007 6.45874 20.15 6.62127 20.15 6.78753C20.1495 7.0103 20.0607 7.22378 19.9032 7.3813C19.7457 7.53882 19.5322 7.62757 19.3094 7.62815ZM26.2907 10.775C25.3469 10.775 24.5844 11.55 24.5844 12.5063V19.2688C24.5844 20.2219 25.35 21 26.2907 21C27.2344 21 27.9969 20.225 27.9969 19.2688V12.5032C28 11.5469 27.2375 10.775 26.2907 10.775ZM5.70942 10.775C4.76567 10.775 4.00317 11.55 4.00317 12.5063V19.2688C4.00317 20.2219 4.7688 21 5.70942 21C6.65317 21 7.41567 20.225 7.41567 19.2688V12.5032C7.41567 11.5469 6.65005 10.775 5.70942 10.775Z" fill="#A1A1A1"/>
</svg>
