<svg width="501" height="506" viewBox="0 0 501 506" fill="none" xmlns="http://www.w3.org/2000/svg">
    <path d="M414.887 505.662H85.8662C38.6358 505.662 0 466.387 0 418.403V87.2605C0 39.2748 38.6358 0 85.8662 0H414.887C462.092 0 500.754 39.2748 500.754 87.2605V418.403C500.754 466.387 462.092 505.662 414.887 505.662Z" fill="#A4A4A4"/>
    <path d="M98.7268 280.687H68.6381V253.781H55.323V320.5H68.6381V293.407H98.7268V320.5H112.042V253.781H98.7268V280.687Z" fill="#FEFEFE"/>
    <path d="M173.765 291.967C173.765 302.809 168.463 308.618 158.855 308.618C149.157 308.618 143.834 302.669 143.834 291.496V253.815H130.519V291.967C130.519 310.749 140.771 321.496 158.672 321.496C176.709 321.496 187.082 310.537 187.082 291.431V253.768H173.765V291.967V291.967Z" fill="#FEFEFE"/>
    <path d="M327.728 299.663L312.819 253.762H301.944L287.035 299.663L272.524 253.808H258.352L281.229 320.509H292.266L307.196 276.685L322.124 320.509H333.253L356.065 253.808H342.265L327.728 299.663Z" fill="#FEFEFE"/>
    <path d="M379.953 291.782H404.195V279.626H379.953V265.97H415.115V253.814H366.826V320.469H416.402V308.319H379.953V291.782Z" fill="#FEFEFE"/>
    <path d="M432.28 320.427H445.407V253.774H432.28V320.427Z" fill="#FEFEFE"/>
    <path d="M238.516 294.549H218.357L219.003 293.003H218.976L228.4 270.663L237.89 293.003H237.87L238.516 294.549V294.549ZM234.415 253.774H222.759L193.84 320.473H207.437L213.007 307.548L213.426 306.586H243.467L249.365 320.473H263.326L234.664 254.152L234.415 253.774V253.774Z" fill="#FEFEFE"/>
    <path d="M250.364 170.829C203.407 170.829 165.254 132.018 165.254 84.312C165.254 80.5221 168.272 77.4478 172.007 77.4478C175.717 77.4478 178.754 80.5221 178.754 84.312C178.754 124.457 210.872 157.099 250.364 157.099C289.848 157.099 321.986 124.457 321.986 84.312C321.986 80.5221 325.03 77.4478 328.74 77.4478C332.475 77.4478 335.492 80.5221 335.492 84.312C335.492 132.018 297.313 170.829 250.364 170.829V170.829Z" fill="#FEFEFE"/>
</svg>