<svg width="50" height="50" viewBox="0 0 50 50" fill="white" xmlns="http://www.w3.org/2000/svg">
<path d="M25 0C15.0151 0 6.89189 8.12324 6.89189 18.108C6.89189 30.4994 23.0969 48.6907 23.7868 49.4591C24.4349 50.1809 25.5663 50.1796 26.2132 49.4591C26.9031 48.6907 43.1081 30.4994 43.1081 18.108C43.1079 8.12324 34.9848 0 25 0ZM25 27.2187C19.9764 27.2187 15.8894 23.1316 15.8894 18.108C15.8894 13.0844 19.9765 8.99746 25 8.99746C30.0235 8.99746 34.1104 13.0845 34.1104 18.1081C34.1104 23.1317 30.0235 27.2187 25 27.2187Z" fill="fffff"/>
</svg>
